<svg xmlns="http://www.w3.org/2000/svg" width="18" height="17.974" viewBox="0 0 18 17.974">
  <g id="filter-tool-black-shape" transform="translate(0 -0.291)">
    <path id="Path_22" data-name="Path 22" d="M17.923.789a.764.764,0,0,0-.754-.5H.83a.763.763,0,0,0-.753.5.737.737,0,0,0,.179.894L6.549,7.976v6.2a.786.786,0,0,0,.243.575l3.268,3.268a.759.759,0,0,0,.575.243.888.888,0,0,0,.319-.064.763.763,0,0,0,.5-.753V7.976l6.293-6.293A.737.737,0,0,0,17.923.789Z" transform="translate(0)" fill="#fff"/>
  </g>
</svg>
