<svg xmlns="http://www.w3.org/2000/svg" width="19.5" height="26" viewBox="0 0 19.5 26">
  <g id="lock" transform="translate(-64)">
    <g id="Group_17" data-name="Group 17" transform="translate(64)">
      <path id="Path_23" data-name="Path 23" d="M82.958,9.75H81.333V7.583a7.583,7.583,0,1,0-15.166,0V9.75H64.542a.541.541,0,0,0-.542.542V23.833A2.169,2.169,0,0,0,66.167,26H81.333A2.169,2.169,0,0,0,83.5,23.833V10.292A.541.541,0,0,0,82.958,9.75ZM75.372,21.065a.542.542,0,0,1-.538.6H72.667a.542.542,0,0,1-.538-.6l.342-3.073a2.143,2.143,0,0,1-.887-1.742,2.167,2.167,0,1,1,4.333,0,2.143,2.143,0,0,1-.887,1.742ZM78.083,9.75H69.417V7.583a4.333,4.333,0,1,1,8.667,0Z" transform="translate(-64)" fill="#fff"/>
    </g>
  </g>
</svg>
